<svg width="154" height="35" viewBox="0 0 154 35" fill="none" xmlns="http://www.w3.org/2000/svg">
<path d="M15.6787 3.18298L31.0078 30.2386L31.7266 31.5072H18.0986L17.8535 31.0795L16.2393 28.2513H5.34473L4.95996 28.9974L4.93262 29.0502L4.89844 29.099L3.49414 31.0873L2.8457 32.0052L2.13867 31.1312L1.29785 30.0902L0.979492 29.6967L1.13184 29.3314L1.0625 29.3685L1.43652 28.6L1.44727 28.5736L1.45117 28.5648L1.45605 28.5551V28.5541L1.45703 28.5521C1.45775 28.5505 1.45871 28.5481 1.45996 28.5453C1.46253 28.5396 1.46598 28.5313 1.4707 28.5209C1.48034 28.4995 1.49462 28.4685 1.5127 28.4291C1.53446 28.3816 1.5627 28.3219 1.5957 28.2513H1.3125V25.2162H3.08496L14.1797 3.21912L14.8955 1.80115L15.6787 3.18298ZM135.823 3.53259C140.68 3.53261 144.737 4.78759 147.922 7.36169C151.17 9.9869 152.809 13.4258 152.809 17.6088C152.809 21.7876 151.126 25.2472 147.81 27.9281L147.805 27.932C145.728 29.5883 143.195 30.717 140.233 31.3373H140.23C138.741 31.6444 137.03 31.7943 135.106 31.7943C133.143 31.7943 131.137 31.4669 129.091 30.8217L129.086 30.8207C127.026 30.1584 125.208 29.2099 123.642 27.9701L123.639 27.9681C122.069 26.7125 120.813 25.1945 119.877 23.4203L119.873 23.4125C118.942 21.6039 118.479 19.6404 118.479 17.5355C118.479 15.4273 118.915 13.5088 119.808 11.8002L119.81 11.7972C120.704 10.1029 121.932 8.6403 123.485 7.4115L123.487 7.40955C126.801 4.80757 130.934 3.53259 135.823 3.53259ZM59.0664 3.66052C59.4678 3.66058 59.8889 3.75569 60.2432 4.03064L60.2451 4.02966C60.5564 4.26071 60.835 4.62993 60.835 5.13318C60.8349 5.3646 60.7991 5.60573 60.7041 5.83826L60.6904 5.87146C60.5828 6.10584 60.4087 6.30684 60.249 6.46619L60.2432 6.47205C59.8723 6.83518 59.2339 7.28604 58.3965 7.81091L58.3936 7.81287L54.0322 10.5131L62.084 26.5834C62.1626 26.7351 62.239 26.8767 62.3125 27.0082L62.5254 27.3724L62.5469 27.4095L62.8896 28.0394L63.2754 28.6342L63.2812 28.6429L63.2871 28.6527C63.4055 28.846 63.5101 29.0379 63.5996 29.2279C63.7275 29.4993 63.8 29.8069 63.7666 30.1342C63.7358 30.4359 63.625 30.713 63.4482 30.9535L63.4346 30.973C63.0897 31.4154 62.6013 31.7025 62.002 31.7025C61.4667 31.7025 60.9066 31.5795 60.4805 31.182L60.46 31.1615C60.1164 30.8187 59.8491 30.4259 59.6689 29.9847L59.6641 29.975V29.974L59.2607 28.9506C59.1369 28.6361 58.969 28.2515 58.7539 27.7943L51.0342 12.3627L47.5225 14.5336V31.4467H34.3936V3.86169H47.5225V10.7621L54.2051 6.64099C55.3154 5.95214 56.0826 5.41352 56.5381 5.0199C57.0322 4.59287 57.3816 4.29882 57.541 4.18494C57.6854 4.08047 57.8355 3.98586 57.9873 3.91052C58.3246 3.72697 58.6991 3.66052 59.0664 3.66052ZM79.7275 3.86169V31.4467H66.5977V3.86169H79.7275ZM135.801 6.56873C135.291 6.56873 134.805 6.58962 134.343 6.6283V28.6996C134.792 28.737 135.278 28.7592 135.801 28.7592C139.627 28.7591 142.795 27.7216 145.357 25.6869L145.358 25.6859C148.012 23.5876 149.316 20.9166 149.316 17.6088C149.316 14.4649 148.095 11.8707 145.606 9.77087V9.7699C143.083 7.65447 139.838 6.56873 135.801 6.56873ZM6.86133 25.2162H14.5312L10.4395 18.015L6.86133 25.2162ZM89.3643 29.8099C89.3643 30.3327 89.1797 30.8395 88.7373 31.2006C88.3602 31.5083 87.9106 31.6478 87.4385 31.6478C86.9861 31.6478 86.5495 31.5168 86.1836 31.2181C85.8692 30.9615 85.5802 30.5717 85.5801 30.0482C85.5801 29.8108 85.5982 29.5796 85.6396 29.3597L85.6445 29.3304L85.6523 29.3011C85.6876 29.1668 85.7191 29.0102 85.7451 28.8295L85.749 28.8021L85.7549 28.7748C85.776 28.6747 85.8026 28.4288 85.8213 27.9857C85.8392 27.5606 85.8486 26.9994 85.8486 26.2982V1.97888L87.1602 2.82751L110.209 17.7465V8.40759C110.209 7.58083 110.179 7.05187 110.132 6.77478L110.129 6.75916L110.127 6.74255C110.052 6.17096 110.008 5.71837 110.008 5.42517C110.008 4.97771 110.128 4.48937 110.514 4.12341C110.891 3.76527 111.38 3.66052 111.821 3.66052C112.241 3.66055 112.632 3.78258 112.981 4.00525C112.986 4.00796 112.991 4.01129 112.995 4.01404C112.998 4.0157 113 4.01724 113.003 4.01892H113.002C113.481 4.32078 113.747 4.80247 113.747 5.37048V6.02576L113.746 6.03943L113.657 8.69177V33.1566L112.349 32.3187L89.2969 17.5521V27.9808L89.3633 29.7787L89.3643 29.7943V29.8099Z" fill="black" stroke="#E6C591" stroke-width="1.7"/>
</svg>