<svg width="20" height="20" viewBox="0 0 20 20" fill="none" xmlns="http://www.w3.org/2000/svg">
<path d="M7.00426 5.67304C9.02627 3.65103 12.3046 3.65103 14.3266 5.67304C16.3486 7.69505 16.3486 10.9734 14.3266 12.9954C12.3046 15.0174 9.02627 15.0174 7.00426 12.9954C4.98225 10.9734 4.98225 7.69505 7.00426 5.67304ZM15.5051 4.49453C12.8322 1.82165 8.49863 1.82165 5.82575 4.49453C3.35234 6.96794 3.16776 10.8635 5.27201 13.5491L1.83378 16.9873C1.50834 17.3128 1.50834 17.8404 1.83378 18.1659C2.15922 18.4913 2.68686 18.4913 3.01229 18.1659L6.45052 14.7276C9.13618 16.8319 13.0317 16.6473 15.5051 14.1739C18.178 11.501 18.178 7.16741 15.5051 4.49453Z" fill="black" fill-opacity="0.5"/>
</svg>